<svg xmlns="http://www.w3.org/2000/svg" viewBox="0 0 1024 1024">
  <g transform="translate(512 512) scale(1.4) translate(-512 -512)">
    <path d="m308.195 211.869 3.956-.012 4.372.003 4.625-.01q6.37-.011 12.743-.01 6.864-.005 13.73-.016 15.023-.02 30.044-.024l18.76-.012q25.966-.019 51.933-.026h6.726l6.755-.002h3.385q27.133-.009 54.267-.046 27.854-.035 55.709-.037 15.64.001 31.28-.025 13.321-.023 26.644-.012 6.795.008 13.59-.011 6.226-.019 12.454 0 2.246.004 4.492-.01c14.917-.08 29.275 2.568 40.34 13.381 10.42 11.947 13.206 23.896 12.326 39.37-1.28 10.34-7.084 20.041-14.834 26.825-9.174 6.765-18.602 10.933-30.12 10.928l-3.419.006-3.74-.009-3.986.003q-5.472.002-10.946-.007-5.903-.005-11.805-.002-10.226 0-20.453-.008-14.784-.011-29.57-.012-23.988-.004-47.976-.019-23.302-.014-46.606-.02h-2.901l-14.41-.005q-59.78-.016-119.56-.05l.006 3.032c.083 44.105.16 88.21.206 132.315l.002 2.024a279487 279487 0 0 1 .06 64.912l.003 2.147c.02 22.954.058 45.909.104 68.863q.072 35.39.089 70.78.007 22.8.07 45.602.038 14.948.028 29.894c-.004 5.749.001 11.498.028 17.247q.036 7.9.008 15.801-.003 2.853.02 5.706c.083 10.596-.342 19.164-5.624 28.677l-1.412 2.558C343.395 802.202 333.471 807.498 322 811c-11.287 2.743-22.428 1.252-32.54-4.426-2.229-1.443-4.347-2.967-6.46-4.574l-3.187-2.25c-8.46-8.271-13.557-20.918-13.942-32.69a773 773 0 0 1-.005-4.76l-.007-2.666q-.009-4.445-.006-8.889l-.011-6.42q-.014-8.838-.017-17.677-.007-9.525-.022-19.052-.027-21.926-.037-43.852l-.015-21.674a175553 175553 0 0 1-.042-78.864v-2.333l-.005-14.05q-.013-37.645-.064-75.29a68111 68111 0 0 1-.059-90.534c-.002-11.54-.018-23.079-.038-34.618q-.03-17.405-.017-34.811c.005-6.284.003-12.568-.016-18.852a2998 2998 0 0 1-.001-17.27q.003-3.119-.014-6.236c-.092-17.062 1.669-31.124 13.501-44.462 7.735-7.494 18.371-12.87 29.199-12.881" fill="#197d9a"/>
    <path d="m495.6 466.853 2.948-.011q4.892-.015 9.785-.019l7.012-.02q11.52-.028 23.038-.041l7.935-.013a37208 37208 0 0 1 41.567-.044l2.148-.002c11.48-.008 22.96-.033 34.44-.066q17.7-.049 35.397-.054c6.62-.002 13.238-.011 19.858-.036q9.345-.035 18.69-.018 3.422 0 6.845-.02c22.21-.126 22.21-.126 30.737 4.491l2.244 1.207c2.025 1.152 3.877 2.417 5.756 3.793l2.023 1.453C755.616 485.024 759.7 495.314 762 507c.37 3.773.399 7.502.367 11.291l.01 3.242c.008 3.548-.006 7.097-.02 10.645q0 3.839.006 7.676.004 9.31-.02 18.617a9263 9263 0 0 0-.02 21.709q-.005 19.371-.042 38.742a23877 23877 0 0 0-.04 37.547l-.001 2.337-.002 4.663v2.323l-.001 2.318q-.007 17.928-.028 35.855l-.01 12.97q-.007 11.247-.031 22.496a5359 5359 0 0 0-.008 7.463q-.004 5.097-.02 10.196l.003 2.973c-.063 15.127-3.23 28.991-14.291 40.093-10.119 8.776-22.177 12.256-35.372 12.121-9.401-.749-17.083-4.637-24.48-10.277l-3.188-2.313c-8.434-8.059-12.87-18.1-13.253-29.708-.073-4.809-.048-9.614-.013-14.423q.001-3.254-.002-6.507c-.001-5.863.022-11.726.05-17.589.025-6.136.028-12.273.33-18.41.012-11.608.045-23.217.085-34.826.045-13.222.067-26.443.087-39.664.041-27.187.112-54.373.201-81.56l-2.903.011q-35.005.135-70.012.196-16.93.028-33.857.095-14.76.06-29.52.074c-5.208.006-10.415.018-15.622.047q-7.363.039-14.725.03-2.693 0-5.384.024c-14.181.116-25.379-1.634-36.977-10.477l-3.188-2.313c-8.475-8.099-12.884-18.075-13.234-29.73-.077-12.356 1.965-20.941 9.422-30.957l1.75-2.625c10.276-10.847 23.383-14.525 37.85-14.522" fill="#197d9a"/>
  </g>
</svg>
